<svg width="1525" height="2193" viewBox="0 0 1525 2193" fill="none" xmlns="http://www.w3.org/2000/svg">
<path d="M1412.81 688.062C1394.79 788.071 1451.7 903.581 1482.32 1151.1C1482.32 1687.65 1538.89 1965.71 1427.98 2083.28C1228.35 2293.54 1088.6 2070.5 958.77 2143.28C813.935 2224.77 681.835 2192.43 561.139 2143.28C443.053 2094.76 343.573 2127.12 163.509 2015.77C8.34558 1844.87 98.0469 1600.83 36.068 1516.23C-65.7077 1377.5 78.8785 1078.61 91.9267 1035.68C113.456 966.01 182.128 874.168 138.682 667.649C121.045 583.809 63.7914 498.634 209.851 262.113C324.879 149.603 393.15 51.5935 697.682 36.5921C1002.21 21.5906 918.635 178.09 1083.31 81.5961C1288.13 -38.4146 1462.94 -49.4152 1525 209.608C1525 393.625 1473.63 350.442 1412.81 688.062Z" fill="url(#paint0_linear)" fill-opacity="0.7"/>
<defs>
<linearGradient id="paint0_linear" x1="529.276" y1="522.636" x2="1502.99" y2="1640.2" gradientUnits="userSpaceOnUse">
<stop stop-color="#FCC5CC"/>
<stop offset="0.898958" stop-color="#88BEDE"/>
</linearGradient>
</defs>
</svg>
