<svg width="2649" height="2429" viewBox="0 0 2649 2429" fill="none" xmlns="http://www.w3.org/2000/svg">
<path d="M2562.22 1601.01C2811.47 994.964 2449.64 717.69 2399.22 618.471C2346.61 515.119 2585.56 251.755 2399.22 121.531C2063.8 -111.357 1829.01 135.683 1610.87 55.0679C1367.53 -35.1933 1145.58 0.635657 942.797 55.068C744.395 108.811 577.254 72.9676 274.718 196.302C14.0217 385.59 164.733 655.899 60.5994 749.605C-110.399 903.256 132.527 1234.32 154.45 1281.86C190.623 1359.03 306.002 1460.76 233.007 1689.5C203.373 1782.36 107.179 1876.7 352.58 2138.68C545.844 2263.3 660.549 2371.85 1172.21 2388.47C1683.87 2405.09 1543.44 2231.75 1820.13 2338.62C2164.25 2471.55 2457.95 2483.73 2562.22 2196.83C2562.22 1993.02 2351.95 1885.01 2562.22 1601.01Z" fill="url(#paint0_linear)" fill-opacity="0.7"/>
<defs>
<linearGradient id="paint0_linear" x1="889.241" y1="1850.12" x2="1829.69" y2="212.793" gradientUnits="userSpaceOnUse">
<stop stop-color="#88BADB"/>
<stop offset="1" stop-color="#947CE2"/>
</linearGradient>
</defs>
</svg>
