<svg width="1906" height="2194" viewBox="0 0 1906 2194" fill="none" xmlns="http://www.w3.org/2000/svg">
<path d="M62.7635 1446.11C-116.5 899 143.735 648.688 180.001 559.118C217.843 465.815 45.9769 228.061 180.001 110.5C421.244 -99.7415 590.114 123.276 747 50.4999C922.02 -30.9842 1081.65 1.36071 1227.5 50.5C1370.2 99.0172 1490.41 66.6591 1708 178C1895.5 348.882 1787.1 592.906 1862 677.5C1984.99 816.209 1810.27 1115.08 1794.5 1158C1768.48 1227.67 1685.5 1319.5 1738 1526C1759.31 1609.83 1828.5 1695 1652 1931.5C1513 2044 1430.5 2142 1062.5 2157C694.502 2172 795.5 2015.52 596.5 2112C349 2232 137.763 2243 62.7635 1984C62.7635 1800 214 1702.5 62.7635 1446.11Z" fill="url(#paint0_linear)" fill-opacity="0.8"/>
<defs>
<linearGradient id="paint0_linear" x1="1266.02" y1="1671" x2="333.495" y2="377.542" gradientUnits="userSpaceOnUse">
<stop stop-color="#FEA1A9"/>
<stop offset="1" stop-color="#FEBDD3"/>
</linearGradient>
</defs>
</svg>
