<svg width="2109" height="2193" viewBox="0 0 2109 2193" fill="none" xmlns="http://www.w3.org/2000/svg">
<path d="M155.157 688.062C180.074 788.071 101.368 903.581 59.0237 1151.1C59.0237 1687.65 -19.2115 1965.71 134.171 2083.28C410.259 2293.54 603.521 2070.5 783.068 2143.28C983.368 2224.77 1166.06 2192.43 1332.97 2143.28C1496.28 2094.76 1633.85 2127.12 1882.88 2015.77C2097.46 1844.87 1973.41 1600.83 2059.12 1516.23C2199.87 1377.5 1999.91 1078.61 1981.87 1035.68C1952.1 966.01 1857.13 874.168 1917.21 667.649C1941.6 583.809 2020.78 498.634 1818.79 262.113C1659.71 149.603 1565.29 51.5935 1144.14 36.5921C722.987 21.5906 838.573 178.09 610.83 81.5961C327.58 -38.4146 85.8324 -49.4152 0 209.608C0 393.625 71.0402 350.442 155.157 688.062Z" fill="url(#paint0_linear)" fill-opacity="0.7"/>
<defs>
<linearGradient id="paint0_linear" x1="1377.04" y1="522.636" x2="490.389" y2="1929.97" gradientUnits="userSpaceOnUse">
<stop stop-color="#FCC5CC"/>
<stop offset="1" stop-color="#957AE1"/>
</linearGradient>
</defs>
</svg>
