<svg width="5228" height="1844" viewBox="0 0 5228 1844" fill="none" xmlns="http://www.w3.org/2000/svg">
<path d="M118.998 603.794C-70.5016 1108.79 -22.9999 933 187.5 1206.5C319 1591 82.8558 1680.54 439.998 1778.06C1082.85 1952.46 1722.57 1717.69 2140.64 1778.06C2607.02 1845.65 3032.4 1818.82 3421.06 1778.06C3801.31 1737.81 4121.65 1764.65 4701.48 1672.29C5201.12 1530.54 4912.28 1328.11 5111.85 1257.94C5439.59 1142.88 4974 894.952 4931.98 859.349C4862.66 801.559 4641.52 725.38 4781.42 554.081C4838.22 484.539 5022.58 413.89 4552.25 217.706C4181.85 124.384 3962.01 43.0891 2981.37 30.646C2000.74 18.2029 2269.88 148.012 1739.59 67.975C1080.06 -31.5688 517.164 -40.6933 317.308 174.156C171.496 261.794 160.998 198.794 118.998 603.794Z" fill="url(#paint0_linear)" fill-opacity="0.7"/>
<defs>
<linearGradient id="paint0_linear" x1="3423.71" y1="352.505" x2="3075.28" y2="1904.97" gradientUnits="userSpaceOnUse">
<stop stop-color="#FFEA8F"/>
<stop offset="1" stop-color="#FEB6A0"/>
</linearGradient>
</defs>
</svg>
