<svg width="2242" height="3124" viewBox="0 0 2242 3124" fill="none" xmlns="http://www.w3.org/2000/svg">
<path d="M2168.56 2059.1C2379.51 1279.65 2073.27 923.04 2030.6 795.432C1986.07 662.508 2188.31 323.789 2030.6 156.304C1746.71 -143.219 1547.99 174.505 1363.38 70.8242C1157.42 -45.263 969.572 0.817534 797.943 70.8243C630.024 139.945 488.563 93.8455 232.51 252.469C11.8675 495.918 139.423 843.569 51.2889 964.087C-93.4367 1161.7 112.166 1587.49 130.72 1648.64C161.335 1747.89 258.987 1878.72 197.207 2172.91C172.126 2292.35 90.7117 2413.68 298.408 2750.61C461.979 2910.89 559.061 3050.5 992.107 3071.87C1425.15 3093.24 1306.3 2870.31 1540.48 3007.76C1831.73 3178.72 2080.3 3194.39 2168.56 2825.41C2168.56 2563.27 1990.59 2424.36 2168.56 2059.1Z" fill="url(#paint0_linear)" fill-opacity="0.7"/>
<defs>
<linearGradient id="paint0_linear" x1="752.616" y1="2379.49" x2="2140.04" y2="789.926" gradientUnits="userSpaceOnUse">
<stop stop-color="#FFEA8F"/>
<stop offset="1" stop-color="#FEB6A0"/>
</linearGradient>
</defs>
</svg>
